<?xml version="1.0" encoding="utf-8"?>
<!-- Generator: Adobe Illustrator 19.1.0, SVG Export Plug-In . SVG Version: 6.00 Build 0)  -->
<!DOCTYPE svg PUBLIC "-//W3C//DTD SVG 1.1//EN" "http://www.w3.org/Graphics/SVG/1.1/DTD/svg11.dtd">
<svg version="1.1" id="Layer_1" xmlns="http://www.w3.org/2000/svg" xmlns:xlink="http://www.w3.org/1999/xlink" x="0px" y="0px"
	 viewBox="-404 206 150 150" style="enable-background:new -404 206 150 150;" xml:space="preserve">
<style type="text/css">
	.st0{fill:#F2F2F2;}
	.st1{fill:#D42A1F;}
</style>
<rect x="-404" y="206" class="st0" width="150" height="150"/>
<path class="st1" d="M-312,261.3c-1.9-0.6-3.9,0.6-4.5,2.5l-4.1,14.5l-4.1-14.5c-0.4-1.5-1.8-2.6-3.3-2.6c-0.1,0-0.2,0-0.2,0
	c-0.1,0-0.2,0-0.2,0c-1.5,0.1-2.9,1.1-3.3,2.6l-4.1,14.4l-4.1-14.4c-0.6-1.9-2.6-3-4.5-2.5c-1.9,0.6-3,2.6-2.5,4.5l7.5,26.4
	c0.4,1.5,1.8,2.5,3.3,2.6c0.1,0,0.2,0,0.3,0c0.1,0,0.2,0,0.3,0c1.5-0.1,2.8-1.1,3.3-2.6l4.2-14.5l4.2,14.5c0.4,1.5,1.8,2.5,3.3,2.6
	c0.1,0,0.2,0,0.2,0c0.1,0,0.2,0,0.2,0c1.5-0.1,2.9-1.1,3.3-2.6l7.5-26.4C-308.9,263.9-310,261.8-312,261.3z"/>
<path class="st1" d="M-304.9,290.8c0,2.2,1.8,4,4,4c2.2,0,4-1.8,4-4v-25.7c0-2.2-1.8-4-4-4c-2.2,0-4,1.8-4,4V290.8z"/>
<path class="st1" d="M-359.6,290.8c0,2.2,1.8,4,4,4c2.2,0,4-1.8,4-4v-25.7c0-2.2-1.8-4-4-4c-2.2,0-4,1.8-4,4V290.8z"/>
<path class="st1" d="M-275.7,277.9l10.3-10.3c1.5-1.5,1.5-3.8,0-5.3c-1.5-1.5-3.8-1.5-5.3,0l-12.3,12.3v-9.4c0-2.2-1.8-4-4-4
	c-2.2,0-4,1.8-4,4v25.7c0,2.2,1.8,4,4,4c2.2,0,4-1.8,4-4v-5.6l2-2l10.2,10.4c1.5,1.5,3.8,1.5,5.3,0s1.5-3.8,0-5.3L-275.7,277.9z"/>
<path class="st1" d="M-364.1,273.1c0-6.4-5.1-11.6-11.4-11.9l0,0H-388c-2.2,0-4,1.8-4,4v25.6c0,2.2,1.8,4,4,4c2.2,0,4-1.8,4-4V285
	h8.5l0,0C-369.2,284.7-364.1,279.5-364.1,273.1z M-376.8,278L-376.8,278l-7.2,0v-9.6h7.1c2.6,0,4.8,2.1,4.8,4.8
	C-372.2,275.8-374.2,277.9-376.8,278z"/>
</svg>
