<?xml version="1.0" encoding="utf-8"?>
<!-- Generator: Adobe Illustrator 19.1.0, SVG Export Plug-In . SVG Version: 6.00 Build 0)  -->
<!DOCTYPE svg PUBLIC "-//W3C//DTD SVG 1.1//EN" "http://www.w3.org/Graphics/SVG/1.1/DTD/svg11.dtd">
<svg version="1.1" id="Layer_1" xmlns="http://www.w3.org/2000/svg" xmlns:xlink="http://www.w3.org/1999/xlink" x="0px" y="0px"
	 viewBox="-329 131 300 300" style="enable-background:new -329 131 300 300;" xml:space="preserve">
<style type="text/css">
	.st0{opacity:0.4;fill:#D1D1D1;enable-background:new    ;}
	.st1{fill:#FFFFFF;stroke:#D3D3D3;stroke-miterlimit:10;}
	.st2{fill:#D42A1F;}
</style>
<path class="st0" d="M-51.6,431h-244.2c-12.5,0-22.6-10.1-22.6-22.6V164.2c0-12.5,10.1-22.6,22.6-22.6h244.2
	c12.5,0,22.6,10.1,22.6,22.6v244.2C-29,420.9-39.1,431-51.6,431z"/>
<path class="st1" d="M-61.4,421h-243.8c-12.5,0-22.6-10.1-22.6-22.6V154.6c0-12.5,10.1-22.6,22.6-22.6h243.8
	c12.5,0,22.6,10.1,22.6,22.6v243.8C-38.8,410.9-48.9,421-61.4,421z"/>
<path class="st2" d="M-150.5,237.3c-3.8-1.1-7.7,1.1-8.8,4.9l-8.1,28.3l-8.1-28.3c-0.9-3-3.6-5-6.5-5.1c-0.2,0-0.3,0-0.4,0
	c-0.1,0-0.3,0-0.4,0c-3,0.1-5.7,2.1-6.5,5.1l-8.1,28.2l-8.1-28.2c-1.1-3.8-5-6-8.8-4.9c-3.8,1.1-5.9,5-4.9,8.8l14.7,51.6
	c0.9,3,3.5,4.9,6.4,5.1c0.2,0,0.3,0,0.5,0c0.2,0,0.3,0,0.5,0c2.9-0.2,5.6-2.1,6.4-5.1l8.1-28.4l8.1,28.4c0.9,3,3.5,5,6.5,5.1
	c0.2,0,0.3,0,0.5,0c0.2,0,0.3,0,0.5,0c3-0.1,5.6-2.1,6.5-5.1l14.7-51.6C-144.5,242.3-146.7,238.4-150.5,237.3z"/>
<path class="st2" d="M-136.6,295c0,4.3,3.4,7.8,7.8,7.8c4.3,0,7.8-3.4,7.8-7.8v-50.2c0-4.3-3.4-7.8-7.8-7.8c-4.3,0-7.8,3.4-7.8,7.8
	V295z"/>
<path class="st2" d="M-243.6,295c0,4.3,3.4,7.8,7.8,7.8s7.8-3.4,7.8-7.8v-50.2c0-4.3-3.4-7.8-7.8-7.8s-7.8,3.4-7.8,7.8V295z"/>
<path class="st2" d="M-79.7,269.7l20.2-20.2c2.9-2.9,2.9-7.5,0-10.3c-2.9-2.9-7.5-2.9-10.3,0l-24.1,24.1v-18.4
	c0-4.3-3.4-7.8-7.8-7.8c-4.3,0-7.8,3.4-7.8,7.8V295c0,4.3,3.4,7.8,7.8,7.8c4.3,0,7.8-3.4,7.8-7.8v-11l3.9-3.9l19.9,20.3
	c2.9,2.9,7.4,3,10.3,0.1c2.9-2.9,3-7.4,0.1-10.3L-79.7,269.7z"/>
<path class="st2" d="M-252.4,260.4c0-12.6-9.9-22.8-22.4-23.3l0,0h-24.4c-4.3,0-7.8,3.4-7.8,7.8v50c0,4.3,3.4,7.8,7.8,7.8
	s7.8-3.4,7.8-7.8v-11.2h16.6l0-0.1C-262.4,283.2-252.4,273-252.4,260.4z M-277.3,269.9L-277.3,269.9l-14.1,0v-18.7h13.8
	c5.2,0,9.4,4.2,9.4,9.4C-268.2,265.6-272.3,269.7-277.3,269.9z"/>
</svg>
