<?xml version="1.0" encoding="utf-8"?>
<!-- Generator: Adobe Illustrator 19.1.0, SVG Export Plug-In . SVG Version: 6.00 Build 0)  -->
<!DOCTYPE svg PUBLIC "-//W3C//DTD SVG 1.1//EN" "http://www.w3.org/Graphics/SVG/1.1/DTD/svg11.dtd">
<svg version="1.1" id="Layer_1" xmlns="http://www.w3.org/2000/svg" xmlns:xlink="http://www.w3.org/1999/xlink" x="0px" y="0px"
	 viewBox="-467 269 24 24" style="enable-background:new -467 269 24 24;" xml:space="preserve">
<style type="text/css">
	.st0{fill:#D42A1F;}
	.st1{fill:#FFFFFF;}
</style>
<path class="st0" d="M-445.4,293h-19.3c-1.3,0-2.4-1.1-2.4-2.4v-19.3c0-1.3,1.1-2.4,2.4-2.4h19.3c1.3,0,2.4,1.1,2.4,2.4v19.3
	C-443,291.9-444.1,293-445.4,293z"/>
<path class="st1" d="M-447.7,278.9c0-3.1-2.4-5.6-5.5-5.7l0,0h-6c-1.1,0-1.9,0.8-1.9,1.9v12.2c0,1.1,0.8,1.9,1.9,1.9
	s1.9-0.8,1.9-1.9v-2.7h4.1l0,0C-450.2,284.5-447.7,282-447.7,278.9z M-453.8,281.2L-453.8,281.2l-3.5,0v-4.6h3.4
	c1.3,0,2.3,1,2.3,2.3C-451.6,280.2-452.6,281.2-453.8,281.2z"/>
</svg>
